<svg width="200" height="200" viewBox="0 0 200 200" fill="none" xmlns="http://www.w3.org/2000/svg">
<path d="M120.885 85.5385L99 96.5175L77.1151 85.5385L99 74.5594L120.885 85.5385Z" stroke="#92E3A9"/>
<mask id="path-2-inside-1_804_571" fill="white">
<path d="M76 85.5385V112.462L99 124L122 112.462V85.5385"/>
</mask>
<path d="M76 112.462H75V113.079L75.5516 113.355L76 112.462ZM99 124L98.5516 124.894L99 125.119L99.4484 124.894L99 124ZM122 112.462L122.448 113.355L123 113.079V112.462H122ZM75 85.5385V112.462H77V85.5385H75ZM75.5516 113.355L98.5516 124.894L99.4484 123.106L76.4484 111.568L75.5516 113.355ZM99.4484 124.894L122.448 113.355L121.552 111.568L98.5516 123.106L99.4484 124.894ZM123 112.462V85.5385H121V112.462H123Z" fill="#92E3A9" mask="url(#path-2-inside-1_804_571)"/>
<path d="M99 97.0769V124" stroke="#92E3A9"/>
<path d="M67.9501 190H132.05C143.18 190 152.21 181.442 152.21 170.862V29.152C152.21 18.582 143.184 10 132.07 10H67.9701C56.8421 10 47.8101 18.582 47.8101 29.152V170.86C47.8101 181.436 56.8361 190 67.9701 190M100.03 183.486C95.0441 183.486 91.0181 179.446 91.0181 174.49C91.0181 169.512 95.0381 165.486 100.03 165.486C105.004 165.486 109.018 169.506 109.018 174.49C109.018 179.452 104.998 183.486 100.03 183.486ZM86.2941 21.664H113.748C114.86 21.664 115.768 22.43 115.768 23.368C115.768 24.31 114.864 25.076 113.748 25.076H86.2941C85.1941 25.076 84.2741 24.31 84.2741 23.368C84.2739 22.43 85.1821 21.664 86.2941 21.664M55.7161 43.26C55.7161 41.672 57.0661 40.384 58.7321 40.384H141.312C142.982 40.384 144.326 41.666 144.326 43.26V156.24C144.326 157.822 142.982 159.106 141.312 159.106H58.7321C57.0661 159.106 55.7161 157.822 55.7161 156.24V43.26" fill="#92E3A9"/>
</svg>
